# xmcd
#
# Track frame offsets:
#	150
#	5490
#	6654
#	24147
#	47105
#	61713
#	75217
#	88421
#	100889
#	115388
#	120518
#	137168
#	144339
#	163643
#	173602
#	186229
#	204102
#
# Disc length: 3117 seconds
#
# Revision: 1
# Processed by: cddbd v1.5.2PL0 Copyright (c) Steve Scherf et al.
# Submitted via: audiograbber 1.83.01
#
DISCID=d30c2b11
DTITLE=Tomislav Goluban and Little Pigeon's ForHill Blues - Pigeon's Flight
DYEAR=2008
DGENRE=Blues
TTITLE0=Pigeon's Flight
TTITLE1=Ok Let's Go
TTITLE2=Goodbye Little Girl
TTITLE3=Further On Up The Road
TTITLE4=Pretty Little Girl
TTITLE5=Diggin' My Potatoes
TTITLE6=Down By The Riverside
TTITLE7=Custard Pie
TTITLE8=Lonesome Valley
TTITLE9=Blues Hop Intro
TTITLE10=Baby Please Don't Go
TTITLE11=T-Train
TTITLE12=Lay Down Sally
TTITLE13=You'd Better Mind
TTITLE14=Steady Rollin' Man
TTITLE15=Midnight Special
TTITLE16=Data Track
EXTD=
EXTT0=
EXTT1=
EXTT2=
EXTT3=
EXTT4=
EXTT5=
EXTT6=
EXTT7=
EXTT8=
EXTT9=
EXTT10=
EXTT11=
EXTT12=
EXTT13=
EXTT14=
EXTT15=
EXTT16=
PLAYORDER=
